<svg xmlns="http://www.w3.org/2000/svg" width="696.8771362304688" height="404.06439208984375" viewBox="-440.4563903808594 -111.97953033447266 696.8771362304688 404.06439208984375"><title>Neo4j Graph Visualization</title><desc>Created using Neo4j (http://www.neo4j.com/)</desc><g class="layer relationships"><g class="relationship" transform="translate(2.159814737281124 91.46138531797497) rotate(317.228854902628)"><path class="outline" fill="#A5ABB6" stroke="none" d="M 6.953439040707552 24.018736134675446 L 17.306200844808384 62.65576918623819 A 17.916697508022974 17.916697508022974 0 1 1 -17.306200844808384 62.65576918623819 L -8.765172356425198 30.780216918698923 L -4.901469051268926 31.815493099109005 L -6.4704761275630185 24.148145657226706 L -11.662949835292403 30.00375978339136 L -7.79924653013613 31.039035963801442 L -16.340275018519314 62.91458823134071 A 16.916697508022974 16.916697508022974 0 1 0 16.340275018519314 62.91458823134071 L 5.987513214418485 24.277555179777966 Z"/><text text-anchor="middle" pointer-events="none" font-size="8px" fill="#000000" x="0" y="94.20964923467838" font-family="sans-serif">parent</text></g><g class="relationship" transform="translate(-214.4019624738351 91.20866668745398) rotate(360.0668617728708)"><path class="outline" fill="#A5ABB6" stroke="none" d="M 12.066987298107785,21.900635094610966 L 12.933012701892222,21.400635094610966 A 109.03460181478151 109.03460181478151 0 0 0 87.9735903961514,74.18068408635635 L 87.79579218305025,75.1647510532941 A 110.03460181478151 110.03460181478151 0 0 1 12.066987298107785,21.900635094610966 Z M 120.93277041007661,76.07759526725192 L 120.80941809706593,75.08523232614877 A 109.03460181478151 109.03460181478151 0 0 0 198.64191229600223,26.51646953532232 L 196.13035643176238,24.875711435905323 L 202.88894050534853,20.929632201998857 L 201.990653448322,28.704147001211645 L 199.47909758408215,27.06338890179465 A 110.03460181478151 110.03460181478151 0 0 1 120.93277041007661,76.07759526725192"/><text text-anchor="middle" pointer-events="none" font-size="8px" fill="#000000" x="104.34347665484908" y="79.3763983662481" font-family="sans-serif">celltype</text></g><g class="relationship" transform="translate(-214.4019624738351 91.20866668745398) rotate(360.0668617728708)"><path class="outline" fill="#A5ABB6" stroke="none" d="M 21.40063509461097,12.933012701892217 L 21.90063509461097,12.06698729810778 A 170.91822534080364 170.91822534080364 0 0 0 87.97651295155597,33.86303850593447 L 87.8631064685738,34.85658718094621 A 171.91822534080364 171.91822534080364 0 0 1 21.40063509461097,12.933012701892217 Z M 121.47730611702666,35.385055111649876 L 121.39518824776627,34.38843248720866 A 170.91822534080364 170.91822534080364 0 0 0 188.12357738788432,14.680272614072415 L 186.7059901856682,12.03632735667523 L 194.52904752218046,11.813226685134328 L 190.01369365750583,18.205532957268662 L 188.5961064552897,15.561587699871477 A 171.91822534080364 171.91822534080364 0 0 1 121.47730611702666,35.385055111649876"/><text text-anchor="middle" pointer-events="none" font-size="8px" fill="#000000" x="104.6651174447603" y="38.44450692561699" font-family="sans-serif">disease</text></g><g class="relationship" transform="translate(-214.4019624738351 91.20866668745398) rotate(360.0668617728708)"><path class="outline" fill="#A5ABB6" stroke="none" d="M 25 0.5 L 85.32979045857847 0.5 L 85.32979045857847 -0.5 L 25 -0.5 Z M 124.23213420857847 0.5 L 184.56192466715694 0.5 L 184.56192466715694 3.5 L 191.56192466715694 0 L 184.56192466715694 -3.5 L 184.56192466715694 -0.5 L 124.23213420857847 -0.5 Z"/><text text-anchor="middle" pointer-events="none" font-size="8px" fill="#000000" x="104.78096233357847" y="3" font-family="sans-serif">organism</text></g><g class="relationship" transform="translate(-411.456388355737 87.33763439063615) rotate(361.1254012087207)"><path class="outline" fill="#A5ABB6" stroke="none" d="M 25 0.5 L 72.25911283910743 0.5 L 72.25911283910743 -0.5 L 25 -0.5 Z M 117.83333158910743 0.5 L 165.09244442821486 0.5 L 165.09244442821486 3.5 L 172.09244442821486 0 L 165.09244442821486 -3.5 L 165.09244442821486 -0.5 L 117.83333158910743 -0.5 Z"/><text text-anchor="middle" pointer-events="none" font-size="8px" fill="#000000" x="95.04622221410743" y="3" font-family="sans-serif">experiment</text></g><g class="relationship" transform="translate(2.159814737281124 91.46138531797497) rotate(361.05727085618537)"><path class="outline" fill="#A5ABB6" stroke="none" d="M 25 0.5 L 85.46993485501748 0.5 L 85.46993485501748 -0.5 L 25 -0.5 Z M 132.82930985501747 0.5 L 193.29924471003497 0.5 L 193.29924471003497 3.5 L 200.29924471003497 0 L 193.29924471003497 -3.5 L 193.29924471003497 -0.5 L 132.82930985501747 -0.5 Z"/><text text-anchor="middle" pointer-events="none" font-size="8px" fill="#000000" x="109.14962235501748" y="3" font-family="sans-serif">namespace</text></g><g class="relationship" transform="translate(2.159814737281124 91.46138531797497) rotate(180.06686177287082)"><path class="outline" fill="#A5ABB6" stroke="none" d="M 21.40063509461097,12.933012701892217 L 21.90063509461097,12.06698729810778 A 170.91822534080364 170.91822534080364 0 0 0 93.71753139599913,34.42037577628585 L 93.63771418316644,35.41718529296173 A 171.91822534080364 171.91822534080364 0 0 1 21.40063509461097,12.933012701892217 Z M 115.68792968300939,35.76384925874527 L 115.6394869893887,34.76502329520869 A 170.91822534080364 170.91822534080364 0 0 0 188.12357738788432,14.680272614072415 L 186.7059901856682,12.03632735667523 L 194.52904752218046,11.813226685134328 L 190.01369365750583,18.205532957268662 L 188.5961064552897,15.561587699871477 A 171.91822534080364 171.91822534080364 0 0 1 115.68792968300939,35.76384925874527"/><text text-anchor="middle" pointer-events="none" font-size="8px" fill="#000000" x="104.6651174447603" y="38.44450692561699" transform="rotate(180 104.6651174447603 35.44450692561699)" font-family="sans-serif">links</text></g><g class="relationship" transform="translate(-199.2977017340687 263.0848619484403) rotate(264.97782169296556)"><path class="outline" fill="#A5ABB6" stroke="none" d="M 24.018736134675446,6.953439040707552 L 24.277555179777966,5.987513214418485 A 235.05023344034112 235.05023344034112 0 0 0 71.76663615440842,13.617438693380336 L 71.70985511743527,14.61582534886017 A 236.05023344034112 236.05023344034112 0 0 1 24.018736134675446,6.953439040707552 Z M 93.75132695401034,14.838542878094273 L 93.71473179933425,13.83921270510126 A 235.05023344034112 235.05023344034112 0 0 0 141.34829351217851,7.17045171237009 L 140.63054998298708,4.257576118338681 L 148.26462715311703,5.981196076595315 L 142.30528488443377,11.0542858377453 L 141.58754135524234,8.141410243713892 A 236.05023344034112 236.05023344034112 0 0 1 93.75132695401034,14.838542878094273"/><text text-anchor="middle" pointer-events="none" font-size="8px" fill="#000000" x="82.73304190053855" y="17.48463172886045" transform="rotate(180 82.73304190053855 14.48463172886045)" font-family="sans-serif">links</text></g><g class="relationship" transform="translate(-214.4019624738351 91.20866668745398) rotate(360.0668617728708)"><path class="outline" fill="#A5ABB6" stroke="none" d="M 12.066987298107785,-21.900635094610966 L 12.933012701892222,-21.400635094610966 A 109.03460181478151 109.03460181478151 0 0 1 91.03070214255493,-74.68828148541988 L 90.88094192560841,-75.67700383138974 A 110.03460181478151 110.03460181478151 0 0 0 12.066987298107785,-21.900635094610966 Z M 117.82409830564335,-76.41922312002772 L 117.72899776119603,-75.42375544780235 A 109.03460181478151 109.03460181478151 0 0 1 198.64191229600223,-26.51646953532232 L 196.13035643176238,-24.875711435905323 L 202.88894050534853,-20.929632201998857 L 201.990653448322,-28.704147001211645 L 199.47909758408215,-27.06338890179465 A 110.03460181478151 110.03460181478151 0 0 0 117.82409830564335,-76.41922312002772"/><text text-anchor="middle" pointer-events="none" font-size="8px" fill="#000000" x="104.34347665484906" y="-73.3763983662481" font-family="sans-serif">tissue</text></g><g class="relationship" transform="translate(2.159814737281124 91.46138531797497) rotate(499.5720229955131)"><path class="outline" fill="#A5ABB6" stroke="none" d="M 25 0.5 L 113.81925981399985 0.5 L 113.81925981399985 -0.5 L 25 -0.5 Z M 143.83097856399985 0.5 L 232.6502383779997 0.5 L 232.6502383779997 3.5 L 239.6502383779997 0 L 232.6502383779997 -3.5 L 232.6502383779997 -0.5 L 143.83097856399985 -0.5 Z"/><text text-anchor="middle" pointer-events="none" font-size="8px" fill="#000000" x="128.82511918899985" y="3" transform="rotate(180 128.82511918899985 0)" font-family="sans-serif">source</text></g><g class="relationship" transform="translate(-214.4019624738351 91.20866668745398) rotate(300.7768509867512)"><path class="outline" fill="#A5ABB6" stroke="none" d="M 25 0.5 L 82.86457251145873 0.5 L 82.86457251145873 -0.5 L 25 -0.5 Z M 112.87629126145873 0.5 L 170.74086377291746 0.5 L 170.74086377291746 3.5 L 177.74086377291746 0 L 170.74086377291746 -3.5 L 170.74086377291746 -0.5 L 112.87629126145873 -0.5 Z"/><text text-anchor="middle" pointer-events="none" font-size="8px" fill="#000000" x="97.87043188645873" y="3" font-family="sans-serif">source</text></g><g class="relationship" transform="translate(-214.4019624738351 91.20866668745398) rotate(444.97782169296556)"><path class="outline" fill="#A5ABB6" stroke="none" d="M 24.018736134675446,6.953439040707552 L 24.277555179777966,5.987513214418485 A 235.05023344034112 235.05023344034112 0 0 0 67.7797950881479,13.356684690862124 L 67.70605239575367,14.353961991976718 A 236.05023344034112 236.05023344034112 0 0 1 24.018736134675446,6.953439040707552 Z M 97.75960362300825,14.65763738732565 L 97.70602785954148,13.659073599894441 A 235.05023344034112 235.05023344034112 0 0 0 141.34829351217851,7.17045171237009 L 140.63054998298708,4.257576118338681 L 148.26462715311703,5.981196076595315 L 142.30528488443377,11.0542858377453 L 141.58754135524234,8.141410243713892 A 236.05023344034112 236.05023344034112 0 0 1 97.75960362300825,14.65763738732565"/><text text-anchor="middle" pointer-events="none" font-size="8px" fill="#000000" x="82.73304190053855" y="17.48463172886045" font-family="sans-serif">source</text></g><g class="relationship" transform="translate(2.159814737281124 91.46138531797497) rotate(237.107122642778)"><path class="outline" fill="#A5ABB6" stroke="none" d="M 25 0.5 L 85.36667843446287 0.5 L 85.36667843446287 -0.5 L 25 -0.5 Z M 115.37839718446287 0.5 L 175.74507561892574 0.5 L 175.74507561892574 3.5 L 182.74507561892574 0 L 175.74507561892574 -3.5 L 175.74507561892574 -0.5 L 115.37839718446287 -0.5 Z"/><text text-anchor="middle" pointer-events="none" font-size="8px" fill="#000000" x="100.37253780946287" y="3" transform="rotate(180 100.37253780946287 0)" font-family="sans-serif">source</text></g><g class="relationship" transform="translate(2.159814737281124 91.46138531797497) rotate(363.4004389490706)"><path class="outline" fill="#A5ABB6" stroke="none" d="M 6.953439040707552 24.018736134675446 L 17.306200844808384 62.65576918623819 A 17.916697508022974 17.916697508022974 0 1 1 -17.306200844808384 62.65576918623819 L -8.765172356425198 30.780216918698923 L -4.901469051268926 31.815493099109005 L -6.4704761275630185 24.148145657226706 L -11.662949835292403 30.00375978339136 L -7.79924653013613 31.039035963801442 L -16.340275018519314 62.91458823134071 A 16.916697508022974 16.916697508022974 0 1 0 16.340275018519314 62.91458823134071 L 5.987513214418485 24.277555179777966 Z"/><text text-anchor="middle" pointer-events="none" font-size="8px" fill="#000000" x="0" y="94.20964923467838" font-family="sans-serif">child</text></g></g><g class="layer nodes"><g class="node" transform="translate(227.42070244366585,95.61856424649721)"><circle class="outline" cx="0" cy="0" r="25" fill="#F79767" stroke="#f36924" stroke-width="2px"/><text text-anchor="middle" pointer-events="none" font-family="sans-serif" dy="1.5625" font-size="25" fill="#FFFFFF"/><text text-anchor="middle" pointer-events="none" x="0" y="5" font-size="10px" fill="#FFFFFF" font-family="sans-serif"> OntoNa…</text></g><g class="node" transform="translate(-411.456388355737,87.33763439063615)"><circle class="outline" cx="0" cy="0" r="25" fill="#D9C8AE" stroke="#c0a378" stroke-width="2px"/><text text-anchor="middle" pointer-events="none" font-family="sans-serif" dy="1.5625" font-size="25" fill="#2A2C34"/><text text-anchor="middle" pointer-events="none" x="0" y="5" font-size="10px" fill="#2A2C34" font-family="sans-serif"> Dataset</text></g><g class="node" transform="translate(2.159814737281124,91.46138531797497)"><circle class="outline" cx="0" cy="0" r="25" fill="#F16667" stroke="#eb2728" stroke-width="2px"/><text text-anchor="middle" pointer-events="none" font-family="sans-serif" dy="1.5625" font-size="25" fill="#FFFFFF"/><text text-anchor="middle" pointer-events="none" x="0" y="5" font-size="10px" fill="#FFFFFF" font-family="sans-serif"> OntoTerm</text></g><g class="node" transform="translate(-214.4019624738351,91.20866668745398)"><circle class="outline" cx="0" cy="0" r="25" fill="#8DCC93" stroke="#5db665" stroke-width="2px"/><text text-anchor="middle" pointer-events="none" font-family="sans-serif" dy="1.5625" font-size="25" fill="#2A2C34"/><text text-anchor="middle" pointer-events="none" x="0" y="5" font-size="10px" fill="#2A2C34" font-family="sans-serif"> Experim…</text></g><g class="node" transform="translate(-110.66031794080766,-82.97953335196215)"><circle class="outline" cx="0" cy="0" r="25" fill="#57C7E3" stroke="#23b3d7" stroke-width="2px"/><text text-anchor="middle" pointer-events="none" font-family="sans-serif" dy="1.5625" font-size="25" fill="#2A2C34"/><text text-anchor="middle" pointer-events="none" x="0" y="5" font-size="10px" fill="#2A2C34" font-family="sans-serif"> </text></g><g class="node" transform="translate(-199.2977017340687,263.0848619484403)"><circle class="outline" cx="0" cy="0" r="25" fill="#ECB5C9" stroke="#da7298" stroke-width="2px"/><text text-anchor="middle" pointer-events="none" font-family="sans-serif" dy="1.5625" font-size="25" fill="#2A2C34"/><text text-anchor="middle" pointer-events="none" x="0" y="5" font-size="10px" fill="#2A2C34" font-family="sans-serif"> Source</text></g></g></svg>